# xmcd
#
# Track frame offsets: 
#        150
#        15812
#        38836
#        56138
#        73352
#        102669
#        124335
#        137423
#        163711
#        181850
#
# Disc length: 2704 seconds
#
# Revision: 2
# Processed by: cddbd v1.5.2PL0 Copyright (c) Steve Scherf et al.
# Submitted via: ExactAudioCopyFreeDBPlugin 1.0
#
DISCID=890a8e0a
DTITLE=Smokey Wilson, South Side Slim, Curtis Tillman - More Blues fro
DTITLE=m the South Side
DYEAR=2000
DGENRE=Blues
TTITLE0=Smokey Wilson - My Woman Is Gone
TTITLE1=Smokey Wilson - Talk To Me
TTITLE2=Smokey Wilson - I Know What You've Been Thinkin'
TTITLE3=Smokey Wilson - One Day You're Going to Know Me
TTITLE4=South Side Slim - Seven Days
TTITLE5=Smokey Wilson, South Side Slim - BB Is the King
TTITLE6=South Side Slim - Country Road
TTITLE7=Curtis Tillman - Confusius
TTITLE8=Curtis Tillman - Angola Blues 
TTITLE9=Curtis Tillman - Going Home Tomorrow
EXTD=
EXTT0=
EXTT1=
EXTT2=
EXTT3=
EXTT4=
EXTT5=
EXTT6=
EXTT7=
EXTT8=
EXTT9=
PLAYORDER=
